<?xml version="1.0" encoding="UTF-8"?><svg id="Layer_1" xmlns="http://www.w3.org/2000/svg" viewBox="40 90 460 315"><defs><style>.cls-1{fill:#1b2e4b;}</style></defs><path class="cls-1" d="M349.49,97.33c-3.88-.97-4.89,2.88-7.52,4.41-7.58,4.41-14.17-.3-21.4-2.3-39.97-11.04-81.17,16.16-97.78,51.6-20.97,44.74,2.49,91.56,55.25,84.8,17.61-2.26,32.45-11.26,44.01-24.41,1-1.13,7.26-8.86,7.36-9.45.17-.92-1.92-2.83-2.85-2.83-1.37,0-9.71,9.93-11.61,11.64-14.18,12.85-40.23,20.05-58.61,10.54-2.29-1.18-8.94-4.72-13.78-12.02-16.29-24.56.43-72.84,32.64-92.98,12.04-7.53,35.64-16.9,48.41-6.83,6.33,5,10.59,13.39,11.05,25.56.05,1.25-.87,4.47-.65,4.77.55.78,4.29.8,5.37.09,1.83-1.2,8.7-37.64,10.11-42.59Z"/><path class="cls-1" d="M440.56,125.89c.49,4.11-.36,9.01,0,13.21l4.6-.37,8.96-42.17c-5.74-.64-5.55,6.92-11.97,7.11-6.06.18-16.64-6.1-24.05-6.94-25.55-2.88-54.3,14.68-51.84,42.71,2.51,28.65,47.44,42.64,48.96,65.93,1.85,28.35-54.33,32.03-60.41,2.22-1.41-6.92-.34-13.29.49-20.15h-4.52c-3,15.98-7.89,31.64-10.34,47.7,5.02,1.22,4.5-5.71,8.86-6.95,5.56-1.58,20.42,5,27.16,6.13,20.42,3.43,43.94-3.28,54.74-21.73,12.66-21.63,1.8-39.07-14.53-53.85-13.22-11.96-47.29-31.24-22.18-50.48,16.87-12.93,43.42-4.66,46.07,17.62Z"/><path class="cls-1" d="M357.36,258.09c-1.75.85-12.47,2.1-12.92,2.58-.13.14.08,1.4,0,1.93,2.26-.21,3.69.24,3.2,2.82l-10.3,37.15c1.86-.33,6.42.62,7.78-.29,1.73-1.15,2.15-11.87,6.11-13.24.83,2.54,2.86,13.95,5.28,14.74,4.09,1.35,12.59-6.9,11.19-8.3-1.3-1.3-4.12,3.35-5.15,2.57l-5.06-14.42c.14-.7,5.35-4.55,6.4-5.18,1.9-1.15,5.67-2.18,6.67-2.9.56-.4.55-1.82.39-1.99-.8-.83-12.68,1.01-14.86.65-.52,2.05,2.11,1.38,3.22,2.26,2.12,1.68-1.5,3.86-2.57,5.16l-7.11,5.47,7.74-29Z"/><path class="cls-1" d="M158.75,260.66h-13.89c-.67,2.97,1.69,1.37,3.86,2.91,1.07.76,2.03,2.21,1.68,3.55l-8.3,29.79c-1.75,3.76-5.16,2.66-5.97,3.71-.7.9.35,1.94.65,1.94h12.59c.92-3.2-3.95-1.37-4.47-4.78l7.06-26.8c1.33-.27,1.5.66,2.06,1.48,5.78,8.53,9.47,21.28,14.81,30.35.5,1.08,1.36,1.18,2.5,1.04l10.66-38.04c.79-3.88,6.3-1.83,6.79-5.15h-14.86v1.93c2.32-.32,4.49.39,5.12,2.86l-6.74,24.22-13.56-29.02Z"/><path class="cls-1" d="M246.27,272.26c-1.56.54-11.24,2.13-11.62,2.59-1.68,2.03,2.33,1.71,3.19,2.93,2.66,3.76,1.6,20.33,1.98,25.42l2.59-.95,12.9-17.74c.84,5.18.85,10.51,1.38,15.72.07.72.22,3.98,1.53,3.62,4.29-6.7,16.34-16.94,18.14-24.44,2.23-9.31-7.86-8.06-6.83-2.33.24,1.37,1.53,1.8,1.83,2.74,1.21,3.89-4.66,10.76-7.62,13.08-.94-3.06-.58-17.86-1.61-19.35-.6-.87-1.45-.84-2.29-.32-2.38,1.47-8.73,14.79-12.25,17.1.26-6.06-.61-12.06-1.3-18.05Z"/><path class="cls-1" d="M327,272.27c-1.8.84-11.6,2.57-12.27,3.23-1.5,1.49,2.76,1.25,2.96,1.89-.99,8.46-4.49,16.87-6.84,25.17,1.44-.27,7.77.42,8.33-.06.48-.41,2.92-9.86,3.83-11.97s5.04-10.56,7.54-10.55c1.81,0,4.74,5.98,7.92-.45s-3.3-8.81-8.28-4.4l-6.43,7.44c.9-1.28,3.75-9.75,3.23-10.31Z"/><path class="cls-1" d="M58.84,232.05c.05-6.35,1.54-3.97,6.06-4.59,5.84-.8,12.46-2.75,14.27-8.96l29.11-104.38c3.36-11.66-11.39-8.58-18.41-10.38l.71-3.75c19.6.68,40.19-1.21,59.68-.12,81.86,4.6,69.98,98.59,8.48,124.55-30.57,12.9-67.43,5.72-99.9,7.63ZM136.41,106.42l-30.1,109.52c-.71,3.65-2.51,7.44,2.22,8.75,6.28,1.74,16.34.35,22.65-1.34,29.39-7.84,47.13-42.41,49.08-70.91,1.97-28.76-14.11-48.24-43.85-46.02Z"/><path class="cls-1" d="M158.75,260.66l13.56,29.02,6.74-24.22c-.63-2.47-2.8-3.19-5.13-2.86v-1.93h14.86c-.49,3.32-6,1.27-6.79,5.15l-10.66,38.04c-1.13.14-2,.04-2.5-1.04-5.33-9.07-9.03-21.82-14.81-30.35-.56-.83-.73-1.76-2.06-1.48l-7.06,26.8c.52,3.41,5.38,1.59,4.47,4.78h-12.59c-.31,0-1.35-1.04-.65-1.94.82-1.05,4.22.05,5.97-3.71l8.3-29.79c.35-1.35-.61-2.79-1.68-3.55-2.18-1.54-4.54.06-3.86-2.91h13.89Z"/><path class="cls-1" d="M357.36,258.09l-7.74,29,7.11-5.47c1.06-1.3,4.68-3.48,2.57-5.16-1.11-.88-3.74-.21-3.22-2.26,2.17.36,14.06-1.47,14.86-.65.17.17.17,1.59-.39,1.99-1,.72-4.77,1.75-6.67,2.9-1.05.63-6.26,4.48-6.4,5.18l5.06,14.42c1.03.78,3.85-3.87,5.15-2.57,1.4,1.4-7.09,9.65-11.19,8.3-2.42-.8-4.45-12.2-5.28-14.74-3.97,1.37-4.38,12.08-6.11,13.24-1.36.91-5.92-.03-7.78.29l10.3-37.15c.49-2.58-.94-3.02-3.2-2.82.08-.52-.13-1.79,0-1.93.45-.48,11.16-1.73,12.92-2.58Z"/><path class="cls-1" d="M246.27,272.26c.69,6,1.56,12,1.3,18.05,3.52-2.31,9.87-15.63,12.25-17.1.84-.52,1.69-.55,2.29.32,1.02,1.49.66,16.29,1.61,19.35,2.96-2.32,8.84-9.19,7.62-13.08-.29-.94-1.58-1.37-1.83-2.74-1.02-5.73,9.06-6.98,6.83,2.33-1.8,7.5-13.85,17.74-18.14,24.44-1.31.36-1.45-2.9-1.53-3.62-.53-5.2-.53-10.53-1.38-15.72l-12.9,17.74-2.59.95c-.38-5.09.68-21.66-1.98-25.42-.86-1.22-4.87-.9-3.19-2.93.38-.46,10.06-2.05,11.62-2.59Z"/><path class="cls-1" d="M295.19,273.07c-6,.96-12.69,7.25-15,12.74-5.96,14.14,3.45,22.79,16.9,15.58,13.12-7.03,19.29-31.7-1.9-28.32ZM299.4,286.94c-1.03,3.59-5.44,16.12-10.52,14.73-4.59-1.27-1.72-9.29-.79-12.49,1.17-4.08,4.44-13.23,9.03-14.22,6.67-1.43,3.24,8.68,2.29,11.97Z"/><path class="cls-1" d="M201.23,288.87c6.55-3.06,12.61-10.15,10.82-13.54-1-1.89-3.88-3-9.38-2.42-7.41.78-15.42,8.13-17.88,15.03-.22.62-2.87,9.57,1.25,13.47.62.59,1.85,1.49,3.49,2.05,2.27.78,4.18.52,5.75.28,6.08-.91,9.99-4.77,11.06-5.86.68-.69,1.19-1.31,1.54-1.75.24-.33.49-.71.73-1.13.06-.11.23-.41.18-.71-.02-.11-.07-.17-.09-.21-.15-.18-.38-.19-.39-.19-.16,0-.27.08-.33.12-.07.05-.11.09-.13.12-.2.22-.49.62-.54.7-.77.82-2.91,2.87-6.21,3.28-3.01.38-6.6-.66-7.72-2.62-.51-.88-.72-1.95-.72-1.95-.18-.89-.13-1.65-.07-2.15.01-.08.03-.14.04-.19.01-.05.02-.09.04-.11.02-.05.03-.08.04-.1.04-.06.11-.08.16-.09.12-.03.39-.07.74-.09,1.89-.13,4.66-.54,7.63-1.94ZM204.23,274.9c4.03,2.77-5.96,15.08-10.92,13.48-.67-3.33,7.54-15.79,10.92-13.48Z"/><path class="cls-1" d="M230.93,265.8l-1.93,8.37h3.23c.08.25.67,2.27-.37,3.25-.48.45-1.16.54-1.67.6-1.5.18-2.51-.47-3.07.08-.15.15-.21.32-.24.43-.57,2.18-1.77,6.8-2.98,11.06-.5,1.77-.75,2.66-.81,2.82,0,0-1,2.8-1.69,5.64-.01.05-.05.22-.02.42.01.07.08.42.37.62.17.11.34.13.4.14.51.06,1.99-.28,3.07-1.55.37-.44.99-1.17,1.17-1.43,0,0,.08-.11.2-.23.11-.11.18-.18.28-.22.05-.02.2-.08.37-.03.11.03.18.09.2.11.03.03.15.15.17.29,0,.03,0,.07,0,.08,0,.03,0,.09-.02.15-.02.05-.03.09-.05.1-.17.31-.26.46-.33.55-1.38,1.86-2.56,2.87-2.56,2.87-1.12.96-2.14,1.55-2.67,1.83-1.47.79-5.5,2.95-7.65,1.4-.81-.58-1.08-1.48-1.2-1.87-1.47-4.7,4.95-17.45,5.53-22.9-.07-.98-4.58,1.09-3.14-2.49.42-1.05,11.57-7.38,12.84-9.75l2.57-.33Z"/><path class="cls-1" d="M327,272.27c.52.56-2.32,9.02-3.23,10.31l6.43-7.44c4.97-4.41,11.31-1.74,8.28,4.4s-6.11.45-7.92.45c-2.51,0-6.6,8.38-7.54,10.55s-3.35,11.56-3.83,11.97c-.56.48-6.89-.21-8.33.06,2.35-8.3,5.85-16.71,6.84-25.17-.2-.64-4.46-.4-2.96-1.89.66-.66,10.47-2.39,12.27-3.23Z"/><circle class="cls-1" cx="208.29" cy="294.4" r=".51"/><circle class="cls-1" cx="227.11" cy="296.24" r=".51"/></svg>