<?xml version="1.0" encoding="UTF-8"?><svg id="Layer_1" xmlns="http://www.w3.org/2000/svg" viewBox="25 85 620 215"><defs><style>.cls-1{fill:#1b2e4b;}.cls-2{isolation:isolate;}</style></defs><g class="cls-2"><path class="cls-1" d="M45.46,146.49c0-32.74,22.68-56.17,53.2-56.17,16.94,0,31.08,6.83,40.32,19.24l-14.56,14.9c-4.22-5.37-9.13-9.09-14.69-11.06-1.86-.66-5.33-1.87-9.95-1.66-6.52.28-11.1,3.19-12.92,4.34-9.47,6.01-14.76,18.1-15.2,29.13-.49,12.23,4.84,26.6,15.4,32.47,6.12,3.4,12.72,3.56,12.72,3.56,1,.02,5.13.08,10.08-1.72,5.51-2,10.37-5.73,14.56-11.16l14.56,14.9c-9.24,12.57-23.38,19.4-40.46,19.4-30.38,0-53.06-23.43-53.06-56.17Z"/><path class="cls-1" d="M219.76,153.16v47.64h-20.44v-10.4c-4.06,7.6-11.9,11.64-22.96,11.64-17.64,0-28.14-10.86-28.14-25.29s9.38-24.98,32.34-24.98h17.36c0-10.4-5.6-16.45-17.36-16.45-7.98,0-16.24,2.95-21.7,7.76l-7.84-16.91c8.26-6.52,20.44-10.09,32.48-10.09,22.96,0,36.26,11.79,36.26,37.08ZM197.92,174.42v-8.53h-14.98c-10.22,0-13.44,4.19-13.44,9.78,0,6.05,4.62,10.09,12.32,10.09,7.28,0,13.58-3.72,16.1-11.33Z"/><path class="cls-1" d="M322.52,159.06c0,26.22-16.38,42.98-37.52,42.98-9.38,0-17.08-3.26-22.68-10.09v38.95h-21.84v-113.58h20.86v9.62c5.46-7.29,13.58-10.86,23.66-10.86,21.14,0,37.52,16.76,37.52,42.98ZM296.38,159.06c0-14.43-7.39-23.12-17.17-23.12s-17.17,8.69-17.17,23.12,7.4,23.12,17.17,23.12,17.17-8.69,17.17-23.12Z"/><path class="cls-1" d="M339.6,92.18h44.52c32.06,0,54.04,21.41,54.04,54.31s-21.98,54.31-54.04,54.31h-44.52v-108.62ZM381.83,180.16c18.37,0,30.39-12.88,30.39-33.67s-12.03-33.67-30.39-33.67h-19.56v67.34h19.56Z"/><path class="cls-1" d="M528.03,165.89h-56.98c2.1,10.4,10.08,16.76,21.56,16.76,7.98,0,13.72-2.64,18.9-8.07l11.62,13.97c-7,8.84-17.5,13.5-31.08,13.5-26.04,0-42.98-18.15-42.98-42.98s17.22-42.98,40.18-42.98,39.2,16.45,39.2,43.29c0,1.86-.28,4.5-.42,6.52ZM470.77,151.77h37.1c-1.54-10.55-8.68-17.38-18.48-17.38s-17.08,6.67-18.62,17.38Z"/><path class="cls-1" d="M617.35,117.32l-31.78,83.48h-22.54l-31.64-83.48h22.54l20.86,56.79,21.56-56.79h21Z"/></g></svg>