<?xml version="1.0" encoding="UTF-8"?><svg id="Layer_1" xmlns="http://www.w3.org/2000/svg" viewBox="40 70 360 325"><defs><style>.cls-1{fill:#1b2e4b;}</style></defs><path class="cls-1" d="M349.87,76.88h-34.92l-39.96,81.9-41.04-81.9h-34.92v37.89c-12.83-24.43-38.81-38.44-71.95-38.44H56.52v153.7h70.56c33.14,0,59.11-14,71.95-38.43v38.97h38.7v-67.62c7.01,22.54,14.01,45.08,21.02,67.62h31.77c6.88-23.35,13.76-46.69,20.65-70.04l.36,70.04h38.7l-.36-153.69ZM124.31,189.63h-19.52v-72.9h19.52c19.53,0,32.94,12.96,32.94,36.45s-13.41,36.45-32.94,36.45Z"/><path class="cls-1" d="M67.42,259.06v18.97h17.98v-18.97h10.91v49.32h-10.91v-20.64h-17.98v20.64h-10.91v-49.32h10.91Z"/><path class="cls-1" d="M123.87,271.76c-11.26,0-18.72,7.42-18.72,18.97s7.9,18.45,18.09,18.45c9.39,0,18.46-5.98,18.46-19.07,0-10.81-7.12-18.35-17.83-18.35ZM131.53,291c-.32,3.94-2.82,7.34-5.39,8.46-1.35.59-2.71.61-2.71.61,0,0-1.69.02-3.41-.87-2.68-1.39-4.86-5.06-4.9-8.96-.05-4.28,2.46-8.05,5.07-9.36,1.68-.83,3.32-.81,3.32-.81,0,0,1.29.02,2.57.54,2.67,1.11,5.86,5.44,5.45,10.39Z"/><path class="cls-1" d="M146.94,256.54h10.91c-.03,13.44-.05,26.87-.08,40.31.03.4.16,1.25.8,1.89.81.81,1.92.79,2.92.77.65-.01,1.82-.14,3.16-.84.01,2.86.03,5.73.04,8.59-.8.46-2.02,1.04-3.59,1.41-1.04.25-3.45.78-6.34-.06-.8-.23-2.98-.89-4.79-2.76-1.27-1.31-3.02-3.28-3.02-6.91,0-14.13,0-28.27,0-42.4Z"/><path class="cls-1" d="M205.9,256.43v41.25c0,4.07.14,8.3.29,10.7h-9.68l-.46-5.24h-.15c-2.2,4.01-6.45,6.05-10.96,6.05-8.27,0-14.95-7.26-14.95-18.39-.05-12.02,7.33-19.03,15.67-19.03,4.33,0,7.64,1.57,9.21,4.05h.14v-19.38h10.89ZM195.59,291.24c.4-4.96-2.78-9.29-5.46-10.39-1.27-.53-2.57-.54-2.57-.54s-1.64-.02-3.32.81c-2.61,1.3-5.12,5.08-5.08,9.35.04,3.9,2.22,7.57,4.9,8.97,1.72.89,3.41.87,3.41.87s1.36-.02,2.71-.61c2.56-1.12,5.07-4.52,5.39-8.46Z"/><path class="cls-1" d="M227.78,262.62c.01,3.1-2.23,5.56-5.85,5.56s-5.68-2.46-5.67-5.56c-.01-3.18,2.27-5.57,5.76-5.57s5.71,2.38,5.76,5.57ZM216.56,308.38v-35.81h10.91v35.81h-10.91Z"/><path class="cls-1" d="M238.1,284.01c0-4.46-.14-8.23-.29-11.44h9.45l.5,4.96h.23c1.41-2.31,4.98-5.77,10.82-5.77,7.15,0,12.54,4.88,12.54,15.42v21.2h-10.91v-19.85c0-4.61-1.61-7.77-5.54-7.77-3,0-4.77,2.15-5.52,4.2-.28.7-.38,1.76-.38,2.75v20.66h-10.91v-24.37Z"/><path class="cls-1" d="M315.42,272.57c-.17,2.31-.3,5.34-.3,10.67v19.93c0,6.88-1.36,12.51-5.33,16.1-3.84,3.4-9.05,4.4-14.2,4.4-4.62,0-9.46-.97-12.59-2.74l2.16-8.44c2.2,1.29,6.04,2.68,10.15,2.68,5.15,0,9.09-2.81,9.09-9.43v-2.3h-.14c-2.06,2.93-5.42,4.62-9.45,4.62-8.64,0-14.81-7.18-14.81-17.43,0-11.55,7.28-18.87,15.87-18.87,4.81,0,7.82,2.14,9.59,5.09h.14l.37-4.28h9.46ZM305.7,290.8c.4-4.96-2.78-9.29-5.46-10.39-1.27-.53-2.57-.54-2.57-.54s-1.64-.02-3.32.81c-2.61,1.3-5.12,5.08-5.08,9.35.04,3.9,2.22,7.57,4.9,8.97,1.72.89,3.41.87,3.41.87s1.36-.02,2.71-.61c2.56-1.12,5.07-4.52,5.39-8.46Z"/><path class="cls-1" d="M325.72,298.68c1.98,1.25,6.17,2.66,9.34,2.66s4.69-1.13,4.69-2.96-1.12-2.75-5.14-4.14c-7.28-2.45-10.03-6.5-9.98-10.7,0-6.73,5.55-11.78,14.24-11.78,4.1,0,7.72.98,9.87,2.09l-1.9,7.67c-1.58-.85-4.63-2.02-7.59-2.02-2.66,0-4.18,1.08-4.18,2.88s1.39,2.62,5.68,4.13c6.65,2.31,9.43,5.8,9.47,11.02,0,6.68-5.1,11.61-15.14,11.61-4.57,0-8.67-1.06-11.34-2.52l1.97-7.95Z"/><rect class="cls-1" x="56.52" y="241.27"/></svg>