<?xml version="1.0" encoding="UTF-8"?><svg id="Layer_1" xmlns="http://www.w3.org/2000/svg" viewBox="25 45 545 200"><defs><style>.cls-1{fill:#1b2e4b;}.cls-2{isolation:isolate;}</style></defs><g class="cls-2"><path class="cls-1" d="M43.02,120.55l5.94-13.18c6.37,4.64,15.88,7.88,24.95,7.88,10.37,0,14.58-3.46,14.58-8.1,0-14.15-43.96-4.43-43.96-32.51,0-12.85,10.37-23.54,31.86-23.54,9.5,0,19.22,2.27,26.24,6.7l-5.4,13.28c-7.02-4-14.26-5.94-20.95-5.94-10.37,0-14.36,3.89-14.36,8.64,0,13.93,43.96,4.32,43.96,32.08,0,12.64-10.48,23.44-32.08,23.44-11.99,0-24.08-3.56-30.78-8.75Z"/><path class="cls-1" d="M169.6,111.8h-35.1l-6.7,16.2h-17.93l33.7-75.6h17.28l33.8,75.6h-18.36l-6.7-16.2ZM164.09,98.52l-11.99-28.94-11.99,28.94h23.98Z"/><path class="cls-1" d="M252.65,128l-14.58-21.06h-16.09v21.06h-17.5V52.4h32.72c20.2,0,32.83,10.48,32.83,27.43,0,11.34-5.72,19.66-15.55,23.87l16.96,24.3h-18.79ZM236.23,66.66h-14.26v26.35h14.26c10.69,0,16.09-4.97,16.09-13.18s-5.4-13.18-16.09-13.18Z"/><path class="cls-1" d="M355.14,107.37c0,13.07-10.37,20.63-30.24,20.63h-39.1V52.4h36.94c18.9,0,28.62,7.88,28.62,19.66,0,7.56-3.89,13.39-10.04,16.63,8.42,2.7,13.82,9.18,13.82,18.68ZM303.19,65.58v17.82h17.39c8.53,0,13.18-3.02,13.18-8.96s-4.64-8.86-13.18-8.86h-17.39ZM337.54,105.54c0-6.37-4.86-9.4-13.93-9.4h-20.41v18.68h20.41c9.07,0,13.93-2.81,13.93-9.29Z"/><path class="cls-1" d="M365.62,90.2c0-22.46,17.5-39.1,41.36-39.1s41.36,16.52,41.36,39.1-17.6,39.1-41.36,39.1-41.36-16.63-41.36-39.1ZM430.63,90.2c0-14.36-10.15-24.19-23.65-24.19s-23.65,9.83-23.65,24.19,10.15,24.19,23.65,24.19,23.65-9.83,23.65-24.19Z"/><path class="cls-1" d="M491,98.3l-10.15,10.58v19.12h-17.39V52.4h17.39v35.32l33.48-35.32h19.44l-31.32,33.7,33.16,41.9h-20.41l-24.19-29.7Z"/></g><g class="cls-2"><path class="cls-1" d="M48.2,154.2h4.42v23.8h-4.42v-23.8Z"/><path class="cls-1" d="M103.99,154.2v23.8h-3.64l-13.12-16.11v16.11h-4.39v-23.8h3.64l13.12,16.11v-16.11h4.39Z"/><path class="cls-1" d="M155.77,154.2l-10.37,23.8h-4.35l-10.4-23.8h4.79l7.92,18.36,7.99-18.36h4.42Z"/><path class="cls-1" d="M199.94,174.29v3.71h-17.85v-23.8h17.37v3.71h-12.95v6.19h11.49v3.64h-11.49v6.56h13.43Z"/><path class="cls-1" d="M226.66,175.48l1.53-3.43c1.9,1.53,4.93,2.62,7.85,2.62,3.71,0,5.27-1.33,5.27-3.09,0-5.13-14.14-1.77-14.14-10.61,0-3.84,3.06-7.11,9.59-7.11,2.86,0,5.85.75,7.92,2.11l-1.39,3.43c-2.14-1.26-4.49-1.87-6.56-1.87-3.67,0-5.17,1.43-5.17,3.23,0,5.07,14.11,1.77,14.11,10.5,0,3.81-3.09,7.07-9.62,7.07-3.71,0-7.41-1.16-9.38-2.86Z"/><path class="cls-1" d="M278.34,157.94h-7.89v-3.74h20.19v3.74h-7.89v20.06h-4.42v-20.06Z"/><path class="cls-1" d="M339.64,178l-.03-15.77-7.82,13.05h-1.97l-7.82-12.85v15.57h-4.22v-23.8h3.64l9.45,15.77,9.28-15.77h3.64l.03,23.8h-4.18Z"/><path class="cls-1" d="M391.9,174.29v3.71h-17.85v-23.8h17.37v3.71h-12.95v6.19h11.49v3.64h-11.49v6.56h13.43Z"/><path class="cls-1" d="M441.78,154.2v23.8h-3.64l-13.12-16.11v16.11h-4.39v-23.8h3.64l13.12,16.11v-16.11h4.39Z"/><path class="cls-1" d="M476.8,157.94h-7.89v-3.74h20.19v3.74h-7.89v20.06h-4.42v-20.06Z"/><path class="cls-1" d="M513.99,175.48l1.53-3.43c1.9,1.53,4.93,2.62,7.85,2.62,3.71,0,5.27-1.33,5.27-3.09,0-5.13-14.14-1.77-14.14-10.61,0-3.84,3.06-7.11,9.59-7.11,2.86,0,5.85.75,7.92,2.11l-1.39,3.43c-2.14-1.26-4.49-1.87-6.56-1.87-3.67,0-5.17,1.43-5.17,3.23,0,5.07,14.11,1.77,14.11,10.5,0,3.81-3.09,7.07-9.62,7.07-3.71,0-7.41-1.16-9.38-2.86Z"/></g></svg>