<?xml version="1.0" encoding="UTF-8"?><svg id="Layer_1" xmlns="http://www.w3.org/2000/svg" viewBox="0 0 1200 400"><defs><style>.cls-1{fill:#151616;}.cls-2{fill:#fff;}</style></defs><path class="cls-1" d="M182.34,125.5c-15.31,17.37-25.18,44.44-26.17,75.55-.33,3.7,0,3.7-.41,6.42-.66,3.7-1.65,10.04-6.42,13.99-4.53,3.79-9.96,3.95-13.91,2.63-6.58-2.14-11.44-9.14-12.26-17.53v-62.38c0-7.32,3.95-14.16,9.96-17.12,2.96-1.48,5.68-1.56,6.67-1.56,4.61.08,19.75.08,42.55,0Z"/><path class="cls-1" d="M284.32,153.15c-4.69,8.56-13.5,8.81-14.07,8.81-23.62-.08-47.16-.08-70.78-.16-6.5.25-18.93,1.81-29.55,10.7-2.14,1.81-5.18,4.36-7.9,8.89,0,0,8.48-21.15,24.53-36.62,12.02-11.6,26.5-16.95,39.67-19.51,13.74-.08,28.81-.16,44.85-.25,1.15.16,2.8.41,4.69,1.15,1.15.49,5.35,2.47,8.15,7,3.29,5.35,3.95,13.41.41,20Z"/><path class="cls-2" d="M156.17,201.05c.41-3.62,1.32-12.1,5.84-19.67-3.13,7.74-4.86,14.65-5.84,19.67Z"/><path class="cls-1" d="M371.97,185.14c-3.47,0-6.66-.64-9.58-1.91s-5.41-3.04-7.49-5.31c-2.08-2.28-3.58-4.88-4.51-7.82l7.34-3.08c1.31,3.38,3.25,5.97,5.79,7.77,2.54,1.81,5.48,2.72,8.8,2.72,1.96,0,3.67-.31,5.1-.92,1.44-.61,2.57-1.48,3.38-2.6.81-1.12,1.21-2.42,1.21-3.89,0-1.96-.56-3.53-1.68-4.73s-2.76-2.11-4.92-2.75l-10.34-3.24c-4.11-1.27-7.22-3.22-9.35-5.86-2.13-2.65-3.19-5.73-3.19-9.24,0-3.03.74-5.73,2.23-8.07,1.49-2.35,3.57-4.19,6.23-5.5,2.66-1.33,5.73-1.98,9.2-1.98,3.28,0,6.26.57,8.95,1.72,2.69,1.16,5,2.75,6.92,4.78,1.93,2.03,3.34,4.36,4.23,7l-7.19,3.09c-1.13-2.89-2.82-5.1-5.06-6.64-2.26-1.55-4.87-2.32-7.86-2.32-1.8,0-3.4.31-4.76.92-1.37.61-2.44,1.48-3.19,2.6-.76,1.12-1.15,2.45-1.15,3.96,0,1.76.56,3.32,1.7,4.69,1.12,1.37,2.81,2.4,5.06,3.08l9.6,3.01c4.36,1.31,7.63,3.21,9.84,5.68,2.2,2.47,3.3,5.54,3.3,9.2,0,3.03-.79,5.72-2.38,8.07-1.6,2.35-3.78,4.19-6.57,5.54-2.79,1.34-6.02,2.02-9.68,2.02Z"/><path class="cls-1" d="M410.63,185.14c-2.69,0-5.05-.47-7.08-1.4-2.03-.93-3.61-2.24-4.73-3.96-1.13-1.71-1.7-3.71-1.7-6.02,0-2.15.48-4.08,1.43-5.79s2.42-3.15,4.41-4.32c1.98-1.18,4.51-2.01,7.59-2.5l13.79-2.28v6.6l-12.18,2.05c-2.2.39-3.82,1.1-4.85,2.13-1.03,1.03-1.54,2.3-1.54,3.82s.57,2.75,1.73,3.7c1.15.96,2.63,1.43,4.43,1.43,2.21,0,4.15-.49,5.84-1.47,1.68-.98,3.01-2.28,3.96-3.93.96-1.64,1.42-3.45,1.42-5.46v-10.2c0-1.91-.73-3.49-2.2-4.74-1.47-1.24-3.4-1.86-5.79-1.86-2.16,0-4.05.56-5.68,1.68-1.65,1.12-2.85,2.61-3.64,4.48l-6.96-3.45c.78-1.96,1.99-3.69,3.63-5.21s3.57-2.69,5.79-3.52c2.23-.84,4.61-1.25,7.15-1.25,3.13,0,5.91.6,8.33,1.77,2.41,1.17,4.3,2.79,5.65,4.87,1.34,2.09,2.02,4.49,2.02,7.24v26.7h-7.93v-7.12l1.61.14c-.93,1.61-2.1,3.01-3.52,4.19-1.41,1.17-3.06,2.08-4.91,2.71-1.86.63-3.89.96-6.09.96Z"/><path class="cls-1" d="M441.15,184.25v-39.69h7.92v8.07l-.73-1.17c.87-2.65,2.29-4.54,4.25-5.69,1.96-1.15,4.3-1.72,7.04-1.72h2.42v7.56h-3.45c-2.75,0-4.95.86-6.64,2.57-1.7,1.71-2.53,4.11-2.53,7.19v22.89h-8.29Z"/><path class="cls-1" d="M488.89,185.14c-3.08,0-5.87-.64-8.39-1.91-2.52-1.27-4.47-3.1-5.84-5.5l.96-1.54v8.07h-7.92v-55.53h8.29v24.06l-1.33-1.91c1.47-2.24,3.43-4,5.87-5.28,2.44-1.27,5.23-1.91,8.36-1.91,3.76,0,7.15.91,10.16,2.72,3.01,1.8,5.38,4.27,7.12,7.4,1.73,3.13,2.6,6.65,2.6,10.57s-.87,7.44-2.6,10.57c-1.73,3.13-4.1,5.61-7.08,7.44-2.98,1.84-6.38,2.76-10.2,2.76ZM488.01,177.44c2.35,0,4.44-.56,6.28-1.7,1.83-1.12,3.26-2.67,4.29-4.66,1.03-1.98,1.54-4.21,1.54-6.71s-.51-4.7-1.54-6.64c-1.03-1.93-2.46-3.47-4.29-4.62-1.84-1.15-3.93-1.73-6.28-1.73s-4.29.57-6.12,1.7c-1.83,1.12-3.27,2.67-4.32,4.66-1.05,1.98-1.58,4.19-1.58,6.64s.53,4.73,1.58,6.71c1.05,1.98,2.5,3.53,4.32,4.66,1.84,1.13,3.88,1.7,6.12,1.7Z"/><path class="cls-1" d="M535.98,185.14c-3.87,0-7.35-.91-10.49-2.72-3.13-1.8-5.62-4.27-7.47-7.4-1.86-3.13-2.79-6.67-2.79-10.64s.92-7.57,2.76-10.67c1.83-3.1,4.31-5.55,7.44-7.33,3.13-1.79,6.65-2.69,10.57-2.69s7.43.9,10.53,2.69c3.1,1.78,5.58,4.23,7.4,7.33,1.84,3.1,2.76,6.66,2.76,10.67s-.93,7.58-2.79,10.71c-1.85,3.13-4.35,5.59-7.47,7.37-3.14,1.79-6.6,2.69-10.42,2.69ZM535.98,177.44c2.3,0,4.36-.56,6.16-1.7,1.81-1.12,3.24-2.67,4.3-4.66,1.05-1.98,1.58-4.21,1.58-6.71s-.53-4.7-1.58-6.64c-1.06-1.93-2.48-3.47-4.3-4.62-1.8-1.15-3.86-1.73-6.16-1.73s-4.36.59-6.2,1.73c-1.84,1.15-3.28,2.69-4.33,4.62s-1.58,4.14-1.58,6.64.53,4.73,1.58,6.71c1.05,1.98,2.5,3.53,4.33,4.66,1.84,1.13,3.9,1.7,6.2,1.7Z"/><path class="cls-1" d="M564.74,184.25v-55.53h8.29v37.19l-3.24-.81,19.81-20.54h10.42l-14.97,15.91,15.63,23.77h-9.61l-13.86-21.05,4.92-.67-11.74,12.48,2.64-5.5v14.74h-8.29Z"/><path class="cls-1" d="M378.42,270.72c-3.9,0-7.51-.72-10.82-2.13-3.3-1.42-6.17-3.39-8.62-5.91-2.45-2.52-4.35-5.49-5.72-8.92-1.37-3.41-2.05-7.19-2.05-11.29s.67-7.81,2.02-11.26c1.34-3.45,3.22-6.42,5.65-8.94,2.42-2.52,5.28-4.48,8.58-5.87,3.3-1.4,6.9-2.09,10.82-2.09s7.26.66,10.34,1.98c3.08,1.31,5.67,3.06,7.78,5.21,2.1,2.15,3.62,4.48,4.55,6.97l-7.71,3.67c-1.17-2.98-3.04-5.38-5.61-7.19-2.57-1.81-5.68-2.71-9.35-2.71s-6.82.85-9.61,2.57c-2.78,1.71-4.95,4.08-6.49,7.12-1.54,3.03-2.3,6.54-2.3,10.55s.79,7.62,2.39,10.67c1.59,3.06,3.77,5.43,6.55,7.12,2.79,1.7,5.99,2.53,9.61,2.53,3.03,0,5.81-.62,8.33-1.86,2.52-1.25,4.52-3.01,6.01-5.29,1.49-2.27,2.24-4.89,2.24-7.88v-3.82l3.96,3.52h-20.69v-7.33h25.38v5.13c0,4.01-.69,7.61-2.05,10.78-1.37,3.18-3.25,5.85-5.61,8.03-2.38,2.17-5.07,3.82-8.11,4.94-3.03,1.13-6.18,1.7-9.47,1.7Z"/><path class="cls-1" d="M411.59,269.83v-39.69h7.92v8.07l-.73-1.17c.87-2.65,2.29-4.54,4.25-5.69,1.96-1.15,4.3-1.72,7.04-1.72h2.42v7.56h-3.45c-2.75,0-4.95.86-6.64,2.57-1.7,1.71-2.53,4.11-2.53,7.19v22.89h-8.29Z"/><path class="cls-1" d="M457.28,270.72c-3.87,0-7.35-.91-10.49-2.72-3.13-1.8-5.62-4.27-7.47-7.4-1.86-3.13-2.79-6.67-2.79-10.64s.92-7.57,2.76-10.67c1.83-3.1,4.31-5.55,7.44-7.33,3.13-1.79,6.65-2.69,10.57-2.69s7.43.9,10.53,2.69c3.1,1.78,5.58,4.23,7.4,7.33,1.84,3.1,2.76,6.66,2.76,10.67s-.93,7.58-2.79,10.71c-1.85,3.13-4.35,5.59-7.47,7.37-3.14,1.79-6.6,2.69-10.42,2.69ZM457.28,263.02c2.3,0,4.36-.56,6.16-1.7,1.81-1.12,3.24-2.67,4.3-4.66,1.05-1.98,1.58-4.21,1.58-6.71s-.53-4.7-1.58-6.64c-1.06-1.93-2.48-3.47-4.3-4.62-1.8-1.15-3.86-1.73-6.16-1.73s-4.36.59-6.2,1.73c-1.84,1.15-3.28,2.69-4.33,4.62s-1.58,4.14-1.58,6.64.53,4.73,1.58,6.71c1.05,1.98,2.5,3.53,4.33,4.66,1.84,1.13,3.9,1.7,6.2,1.7Z"/><path class="cls-1" d="M500.19,270.72c-2.98,0-5.61-.68-7.88-2.02-2.28-1.35-4.02-3.24-5.24-5.65-1.23-2.42-1.84-5.23-1.84-8.41v-24.5h8.29v23.77c0,1.8.37,3.39,1.1,4.76.74,1.37,1.77,2.44,3.08,3.19,1.33.76,2.84,1.15,4.55,1.15s3.31-.39,4.62-1.18c1.33-.78,2.35-1.87,3.08-3.3.74-1.42,1.11-3.08,1.11-4.99v-23.4h8.29v39.69h-7.93v-7.77l.96,1.03c-.93,2.5-2.48,4.38-4.66,5.68-2.17,1.29-4.68,1.95-7.52,1.95Z"/><path class="cls-1" d="M529.02,284.51v-54.36h7.92v8.21l-.96-1.91c1.47-2.24,3.43-4,5.87-5.28,2.44-1.27,5.23-1.91,8.36-1.91,3.76,0,7.15.91,10.16,2.72,3.01,1.8,5.38,4.27,7.12,7.4,1.73,3.13,2.6,6.65,2.6,10.57s-.87,7.44-2.6,10.57-4.1,5.61-7.08,7.44c-2.98,1.84-6.38,2.76-10.2,2.76-3.08,0-5.87-.64-8.39-1.91-2.52-1.27-4.47-3.1-5.84-5.5l1.33-1.54v22.74h-8.29ZM549.33,263.02c2.35,0,4.44-.56,6.28-1.7,1.83-1.12,3.26-2.67,4.29-4.66,1.03-1.98,1.54-4.21,1.54-6.71s-.51-4.7-1.54-6.64c-1.03-1.93-2.46-3.47-4.29-4.62-1.84-1.15-3.93-1.73-6.28-1.73s-4.29.57-6.12,1.7c-1.83,1.12-3.27,2.67-4.32,4.66s-1.58,4.19-1.58,6.64.53,4.73,1.58,6.71c1.05,1.98,2.5,3.53,4.32,4.66,1.84,1.13,3.88,1.7,6.12,1.7Z"/><path class="cls-1" d="M227.51,274.26c15.31-17.37,25.18-44.44,26.17-75.55.33-3.7,0-3.7.41-6.42.66-3.7,1.65-10.04,6.42-13.99,4.53-3.79,9.96-3.95,13.91-2.63,6.58,2.14,11.44,9.14,12.26,17.53v62.38c0,7.32-3.95,14.16-9.96,17.12-2.96,1.48-5.68,1.56-6.67,1.56-4.61-.08-19.75-.08-42.55,0Z"/><path class="cls-1" d="M125.54,246.61c4.69-8.56,13.5-8.81,14.07-8.81,23.62.08,47.16.08,70.78.16,6.5-.25,18.93-1.81,29.55-10.7,2.14-1.81,5.18-4.36,7.9-8.89,0,0-8.48,21.15-24.53,36.62-12.02,11.6-26.5,16.95-39.67,19.51-13.74.08-28.81.16-44.85.25-1.15-.16-2.8-.41-4.69-1.15-1.15-.49-5.35-2.47-8.15-7-3.29-5.35-3.95-13.41-.41-20Z"/><path class="cls-2" d="M253.68,198.71c-.41,3.62-1.32,12.1-5.84,19.67,3.13-7.74,4.86-14.65,5.84-19.67Z"/></svg>