<?xml version="1.0" encoding="UTF-8" standalone="no"?>
<!-- Created with Inkscape (http://www.inkscape.org/) -->

<svg
   version="1.1"
   id="svg1"
   width="1067"
   height="380"
   viewBox="194 496 1067 380"
   sodipodi:docname="logo-ascenda.ai"
   xmlns:inkscape="http://www.inkscape.org/namespaces/inkscape"
   xmlns:sodipodi="http://sodipodi.sourceforge.net/DTD/sodipodi-0.dtd"
   xmlns="http://www.w3.org/2000/svg"
   xmlns:svg="http://www.w3.org/2000/svg">
  
  <sodipodi:namedview
     id="namedview1"
     pagecolor="#ffffff"
     bordercolor="#000000"
     borderopacity="0.25"
     inkscape:showpageshadow="2"
     inkscape:pageopacity="0.0"
     inkscape:pagecheckerboard="0"
     inkscape:deskcolor="#d1d1d1">
    <inkscape:page
       x="0"
       y="0"
       inkscape:label="1"
       id="page1"
       width="1365.3333"
       height="1365.3333"
       margin="525.12 179.37334"
       bleed="0" />
  </sodipodi:namedview>
  <g
     id="layer-MC0"
     inkscape:groupmode="layer"
     inkscape:label="Capa 1">
    <path
       id="path1"
       d="m 0,0 c 1.436,0 2.753,0.067 3.954,0.204 1.2,0.136 2.333,0.34 3.398,0.612 1.064,0.273 2.066,0.6 3.007,0.985 0.94,0.383 1.881,0.822 2.822,1.317 V 14.851 H 4.938 c -0.47,0 -0.848,0.135 -1.132,0.409 -0.285,0.271 -0.427,0.605 -0.427,1.002 v 4.084 H 19.715 V -0.074 C 18.378,-1.04 16.986,-1.882 15.538,-2.6 14.09,-3.317 12.543,-3.917 10.897,-4.4 9.251,-4.883 7.487,-5.241 5.606,-5.477 3.725,-5.712 1.683,-5.829 -0.52,-5.829 c -3.861,0 -7.401,0.662 -10.618,1.986 -3.218,1.323 -5.991,3.18 -8.317,5.57 -2.327,2.387 -4.14,5.252 -5.44,8.594 -1.299,3.342 -1.949,7.018 -1.949,11.028 0,4.058 0.637,7.759 1.912,11.1 1.275,3.342 3.095,6.207 5.458,8.596 2.364,2.389 5.223,4.238 8.577,5.551 3.354,1.311 7.11,1.967 11.269,1.967 2.103,0 4.059,-0.155 5.866,-0.463 1.806,-0.311 3.483,-0.756 5.031,-1.337 1.546,-0.582 2.976,-1.287 4.288,-2.117 1.312,-0.83 2.537,-1.763 3.675,-2.803 L 17.19,38.576 c -0.421,-0.669 -0.965,-1.003 -1.633,-1.003 -0.396,0 -0.83,0.136 -1.3,0.408 -0.619,0.347 -1.312,0.768 -2.079,1.263 -0.767,0.495 -1.702,0.971 -2.803,1.43 -1.102,0.457 -2.401,0.847 -3.898,1.169 -1.498,0.321 -3.274,0.483 -5.329,0.483 -2.995,0 -5.705,-0.489 -8.13,-1.467 -2.427,-0.978 -4.493,-2.376 -6.201,-4.195 -1.708,-1.819 -3.02,-4.022 -3.936,-6.609 -0.916,-2.587 -1.373,-5.49 -1.373,-8.706 0,-3.368 0.476,-6.369 1.43,-9.004 0.952,-2.636 2.295,-4.87 4.028,-6.701 1.732,-1.832 3.787,-3.231 6.163,-4.197 C -5.495,0.482 -2.872,0 0,0"
       style="fill:#000000;fill-opacity:1;fill-rule:nonzero;stroke:none"
       transform="matrix(1.3333333,0,0,-1.3333333,464.54067,832.3916)" />
    <path
       id="path3"
       d="m 0,0 h 7.537 c 2.104,0 3.954,0.254 5.55,0.762 1.597,0.507 2.934,1.224 4.011,2.153 1.076,0.928 1.886,2.035 2.431,3.322 0.544,1.287 0.817,2.711 0.817,4.271 0,3.168 -1.046,5.555 -3.137,7.165 -2.092,1.609 -5.205,2.414 -9.338,2.414 H 0 Z M 0,-5.235 V -27.437 H -7.166 V 25.768 H 7.871 c 3.366,0 6.275,-0.341 8.725,-1.022 2.451,-0.681 4.474,-1.665 6.071,-2.952 1.596,-1.287 2.778,-2.84 3.545,-4.659 0.767,-1.82 1.151,-3.856 1.151,-6.108 0,-1.881 -0.297,-3.638 -0.891,-5.272 -0.594,-1.634 -1.454,-3.1 -2.58,-4.4 -1.127,-1.299 -2.5,-2.407 -4.121,-3.323 -1.622,-0.916 -3.459,-1.609 -5.514,-2.079 0.891,-0.519 1.683,-1.275 2.376,-2.265 l 15.52,-21.125 h -6.386 c -1.312,0 -2.278,0.506 -2.896,1.522 L 9.059,-6.905 c -0.421,0.593 -0.879,1.02 -1.373,1.28 -0.496,0.26 -1.239,0.39 -2.228,0.39 z"
       style="fill:#000000;fill-opacity:1;fill-rule:nonzero;stroke:none"
       transform="matrix(1.3333333,0,0,-1.3333333,565.62787,802.7888)" />
    <path
       id="path5"
       d="m 0,0 c 0,3.267 -0.445,6.2 -1.337,8.799 -0.891,2.599 -2.153,4.796 -3.787,6.591 -1.633,1.794 -3.614,3.173 -5.94,4.139 -2.327,0.965 -4.926,1.449 -7.797,1.449 -2.847,0 -5.434,-0.484 -7.76,-1.449 -2.326,-0.966 -4.313,-2.345 -5.959,-4.139 -1.647,-1.795 -2.914,-3.992 -3.806,-6.591 C -37.276,6.2 -37.722,3.267 -37.722,0 c 0,-3.268 0.446,-6.195 1.336,-8.781 0.892,-2.587 2.159,-4.778 3.806,-6.572 1.646,-1.794 3.633,-3.168 5.959,-4.121 2.326,-0.953 4.913,-1.429 7.76,-1.429 2.871,0 5.47,0.476 7.797,1.429 2.326,0.953 4.307,2.327 5.94,4.121 1.634,1.794 2.896,3.985 3.787,6.572 C -0.445,-6.195 0,-3.268 0,0 m 7.389,0 c 0,-3.985 -0.631,-7.643 -1.894,-10.972 -1.263,-3.329 -3.045,-6.194 -5.347,-8.594 -2.301,-2.402 -5.067,-4.265 -8.297,-5.588 -3.231,-1.325 -6.801,-1.987 -10.712,-1.987 -3.911,0 -7.476,0.662 -10.693,1.987 -3.217,1.323 -5.977,3.186 -8.279,5.588 -2.303,2.4 -4.085,5.265 -5.347,8.594 -1.262,3.329 -1.893,6.987 -1.893,10.972 0,3.984 0.631,7.642 1.893,10.971 1.262,3.329 3.044,6.201 5.347,8.614 2.302,2.413 5.062,4.288 8.279,5.625 3.217,1.336 6.782,2.005 10.693,2.005 3.911,0 7.481,-0.669 10.712,-2.005 3.23,-1.337 5.996,-3.212 8.297,-5.625 C 2.45,17.172 4.232,14.3 5.495,10.971 6.758,7.642 7.389,3.984 7.389,0"
       style="fill:#000000;fill-opacity:1;fill-rule:nonzero;stroke:none"
       transform="matrix(1.3333333,0,0,-1.3333333,722.1104,803.9268)" />
    <path
       id="path7"
       d="m 0,0 c 2.203,0 4.171,0.371 5.903,1.114 1.733,0.742 3.2,1.782 4.4,3.118 1.2,1.337 2.116,2.934 2.748,4.79 0.631,1.857 0.946,3.899 0.946,6.126 v 32.339 h 7.166 V 15.148 c 0,-3.069 -0.489,-5.916 -1.467,-8.54 C 18.719,3.984 17.32,1.714 15.501,-0.204 13.682,-2.123 11.46,-3.626 8.837,-4.715 6.213,-5.805 3.268,-6.349 0,-6.349 c -3.268,0 -6.213,0.544 -8.837,1.634 -2.623,1.089 -4.851,2.592 -6.683,4.511 -1.832,1.918 -3.236,4.188 -4.213,6.812 -0.979,2.624 -1.467,5.471 -1.467,8.54 v 32.339 h 7.166 V 15.186 c 0,-2.228 0.315,-4.27 0.946,-6.126 0.632,-1.857 1.547,-3.454 2.748,-4.79 1.2,-1.337 2.673,-2.383 4.418,-3.137 C -4.177,0.377 -2.203,0 0,0"
       style="fill:#000000;fill-opacity:1;fill-rule:nonzero;stroke:none"
       transform="matrix(1.3333333,0,0,-1.3333333,822.1572,831.7484)" />
    <path
       id="path9"
       d="m 0,0 h 8.54 c 2.054,0 3.867,0.272 5.439,0.817 1.572,0.544 2.89,1.305 3.955,2.284 1.063,0.977 1.868,2.146 2.413,3.508 0.544,1.361 0.816,2.859 0.816,4.493 0,3.39 -1.046,6.039 -3.137,7.945 -2.091,1.906 -5.254,2.859 -9.486,2.859 H 0 Z m 0,-5.718 v -19.9 H -7.165 V 27.587 H 8.54 c 3.366,0 6.293,-0.391 8.78,-1.17 2.489,-0.779 4.549,-1.888 6.183,-3.323 1.633,-1.436 2.852,-3.169 3.656,-5.198 0.805,-2.03 1.207,-4.294 1.207,-6.794 0,-2.476 -0.433,-4.741 -1.3,-6.795 C 26.2,2.252 24.932,0.482 23.261,-1.002 21.591,-2.487 19.517,-3.645 17.042,-4.474 14.566,-5.304 11.732,-5.718 8.54,-5.718 Z"
       style="fill:#000000;fill-opacity:1;fill-rule:nonzero;stroke:none"
       transform="matrix(1.3333333,0,0,-1.3333333,926.9072,805.21453)" />
    <path
       id="path11"
       d="m 0,0 0.479,1.103 29.727,69.944 h 0.388 L 57.033,8.839 C 49.062,8.337 25.477,6.4 0,0 M 23.6,89.699 -18.341,-5.375 c -14.469,-4.918 -28.494,-11.49 -39.592,-20.27 0,0 13.737,5.12 35.087,10.057 l -13.979,-31.688 h 16.515 l 14.96,34.973 0.155,0.356 c 20.065,3.638 44.089,6.274 68.851,5.114 l 2.3,-5.47 15.154,-34.973 H 97.625 L 37.2,89.699 Z"
       style="fill:#000000;fill-opacity:1;fill-rule:nonzero;stroke:none"
       transform="matrix(1.3333333,0,0,-1.3333333,256.61787,644.7192)" />
    <path
       id="path13"
       d="m 0,0 -17.681,3.691 c -4.923,1.036 -8.548,2.721 -10.88,5.052 -2.331,2.332 -3.497,5.31 -3.497,8.938 0,4.662 1.876,8.418 5.635,11.268 3.755,2.848 9.258,4.275 16.514,4.275 3.367,0 6.703,-0.422 10.006,-1.263 3.303,-0.844 6.509,-2.074 9.617,-3.691 3.109,-1.622 5.893,-3.595 8.355,-5.927 l 5.246,11.075 c -2.593,2.589 -5.668,4.76 -9.229,6.509 -3.564,1.748 -7.353,3.075 -11.366,3.983 -4.016,0.904 -8.227,1.36 -12.629,1.36 -7.383,0 -13.862,-1.166 -19.429,-3.498 -5.571,-2.331 -9.878,-5.604 -12.92,-9.811 -3.045,-4.211 -4.566,-9.229 -4.566,-15.058 0,-6.606 1.973,-11.982 5.926,-16.126 3.949,-4.147 10.006,-7.061 18.166,-8.743 l 17.68,-3.886 c 5.31,-1.166 9.196,-2.817 11.658,-4.955 2.459,-2.136 3.691,-5.02 3.691,-8.645 0,-4.663 -1.879,-8.355 -5.634,-11.074 -3.758,-2.721 -9.326,-4.08 -16.709,-4.08 -3.886,0 -7.708,0.387 -11.463,1.165 -3.759,0.777 -7.45,1.973 -11.075,3.594 -3.627,1.618 -6.994,3.659 -10.103,6.12 l -5.051,-11.074 c 2.847,-2.463 6.247,-4.566 10.2,-6.314 3.949,-1.749 8.224,-3.11 12.823,-4.08 4.596,-0.972 9.356,-1.458 14.28,-1.458 7.642,0 14.281,1.135 19.915,3.4 5.635,2.265 10.006,5.504 13.115,9.715 3.109,4.207 4.663,9.162 4.663,14.863 0,6.734 -2.107,12.076 -6.315,16.029 C 14.733,-4.696 8.418,-1.815 0,0"
       style="fill:#000000;fill-opacity:1;fill-rule:nonzero;stroke:none"
       transform="matrix(1.3333333,0,0,-1.3333333,468.6432,639.8812)" />
    <path
       id="path15"
       d="m 0,0 c 4.013,0 8.257,-0.844 12.726,-2.526 4.468,-1.685 8.579,-4.341 12.337,-7.966 l 5.44,11.463 c -3.758,3.756 -8.484,6.67 -14.183,8.743 -5.701,2.071 -11.463,3.109 -17.292,3.109 -9.456,0 -17.616,-1.943 -24.48,-5.829 -6.867,-3.886 -12.144,-9.456 -15.835,-16.709 -3.692,-7.255 -5.537,-15.868 -5.537,-25.841 0,-9.845 1.845,-18.49 5.537,-25.938 3.691,-7.449 8.968,-13.245 15.835,-17.388 6.864,-4.147 15.024,-6.218 24.48,-6.218 5.699,0 11.43,1.069 17.195,3.206 5.762,2.138 10.522,5.082 14.28,8.841 l -5.44,11.463 C 21.305,-65.349 17.194,-68.069 12.726,-69.75 8.257,-71.436 4.013,-72.277 0,-72.277 c -9.845,0 -17.423,3.27 -22.732,9.813 -5.313,6.539 -7.966,15.445 -7.966,26.714 0,11.527 2.653,20.367 7.966,26.521 C -17.423,-3.079 -9.845,0 0,0"
       style="fill:#000000;fill-opacity:1;fill-rule:nonzero;stroke:none"
       transform="matrix(1.3333333,0,0,-1.3333333,588.84173,596.6188)" />
    <path
       id="path17"
       d="m 0,0 c 0.516,4.791 1.618,9.196 3.303,13.212 2.331,5.309 5.795,9.487 10.394,12.532 4.596,3.042 10.2,4.566 16.806,4.566 8.807,0 15.543,-2.851 20.207,-8.549 C 54.854,16.448 57.122,9.196 57.511,0 Z m 52.069,36.333 c -6.09,3.755 -13.406,5.634 -21.954,5.634 -8.938,0 -16.806,-2.073 -23.607,-6.217 -6.8,-4.147 -12.143,-9.879 -16.029,-17.195 -3.885,-7.319 -5.828,-15.902 -5.828,-25.743 0,-10.104 1.973,-18.783 5.926,-26.036 3.949,-7.255 9.52,-12.856 16.709,-16.805 7.189,-3.953 15.768,-5.927 25.743,-5.927 6.865,0 13.601,1.166 20.206,3.498 6.606,2.331 12.047,5.439 16.321,9.325 l -5.44,11.075 c -4.664,-4.016 -9.617,-6.897 -14.863,-8.646 -5.246,-1.748 -10.656,-2.623 -16.224,-2.623 -6.994,0 -13.017,1.39 -18.069,4.178 -5.051,2.784 -8.81,6.897 -11.269,12.337 -2.204,4.663 -3.497,10.166 -3.885,16.515 H 71.11 v 6.023 c 0,9.584 -1.652,17.808 -4.955,24.675 -3.302,6.864 -7.998,12.173 -14.086,15.932"
       style="fill:#000000;fill-opacity:1;fill-rule:nonzero;stroke:none"
       transform="matrix(1.3333333,0,0,-1.3333333,664.22787,635.4776)" />
    <path
       id="path19"
       d="m 0,0 c -4.987,2.653 -11.238,3.983 -18.749,3.983 -8.032,0 -15.091,-1.879 -21.178,-5.634 -4.793,-2.981 -8.549,-7.061 -11.268,-12.241 V 2.234 h -15.349 v -94.425 h 15.737 v 53.819 c 0,5.956 1.166,11.138 3.497,15.543 2.331,4.402 5.635,7.835 9.91,10.297 4.274,2.459 9.258,3.692 14.96,3.692 5.051,0 9.162,-0.908 12.337,-2.72 3.172,-1.815 5.504,-4.599 6.995,-8.355 1.487,-3.758 2.234,-8.548 2.234,-14.377 v -57.899 h 15.737 v 58.87 c 0,8.419 -1.232,15.413 -3.691,20.984 C 8.71,-6.77 4.985,-2.656 0,0"
       style="fill:#000000;fill-opacity:1;fill-rule:nonzero;stroke:none"
       transform="matrix(1.3333333,0,0,-1.3333333,878.07547,584.8324)" />
    <path
       id="path21"
       d="m 0,0 c -5.246,-6.284 -12.338,-9.424 -21.275,-9.424 -8.81,0 -15.869,3.14 -21.178,9.424 -5.313,6.281 -7.966,15.252 -7.966,26.909 0,11.785 2.653,20.789 7.966,27.007 5.309,6.217 12.368,9.325 21.178,9.325 8.937,0 16.029,-3.108 21.275,-9.325 C 5.245,47.698 7.868,38.694 7.868,26.909 7.868,15.252 5.245,6.281 0,0 m 7.479,57.801 c -2.331,4.663 -5.701,8.549 -10.102,11.658 -6.09,4.274 -13.406,6.411 -21.955,6.411 -8.421,0 -15.771,-1.976 -22.052,-5.926 -6.284,-3.952 -11.141,-9.587 -14.572,-16.903 -3.434,-7.319 -5.149,-16.029 -5.149,-26.132 0,-9.975 1.715,-18.622 5.149,-25.938 3.431,-7.32 8.288,-12.987 14.572,-17 6.281,-4.017 13.631,-6.024 22.052,-6.024 8.549,0 15.932,2.201 22.149,6.607 4.533,3.236 7.966,7.383 10.297,12.434 v -17.292 h 15.35 V 116.671 H 7.479 Z"
       style="fill:#000000;fill-opacity:1;fill-rule:nonzero;stroke:none"
       transform="matrix(1.3333333,0,0,-1.3333333,1017.1875,680.682)" />
    <path
       id="path23"
       d="m 0,0 c 0,-5.571 -1.136,-10.492 -3.4,-14.767 -2.268,-4.274 -5.377,-7.643 -9.327,-10.102 -3.952,-2.462 -8.518,-3.692 -13.697,-3.692 -6.347,0 -11.366,1.682 -15.057,5.051 -3.692,3.367 -5.538,7.705 -5.538,13.018 0,3.109 0.647,5.698 1.943,7.771 1.294,2.072 3.497,3.756 6.606,5.053 3.109,1.293 7.317,2.2 12.629,2.719 5.31,0.516 11.915,0.778 19.818,0.778 H 0 Z m 11.269,41.481 c -2.593,5.373 -6.542,9.39 -11.852,12.046 -5.313,2.653 -12.046,3.983 -20.206,3.983 -4.274,0 -8.743,-0.455 -13.406,-1.36 -4.663,-0.908 -9.132,-2.234 -13.407,-3.983 -4.274,-1.749 -8.096,-3.789 -11.462,-6.12 l 5.439,-11.464 c 5.568,3.625 11.008,6.249 16.32,7.87 5.31,1.617 10.814,2.428 16.516,2.428 7.383,0 12.692,-1.782 15.932,-5.343 C -1.621,35.974 0,30.179 0,22.149 v -6.023 h -6.218 c -14.25,0 -25.485,-0.844 -33.709,-2.526 -8.227,-1.684 -14.12,-4.535 -17.68,-8.549 -3.565,-4.016 -5.343,-9.52 -5.343,-16.514 0,-5.44 1.487,-10.364 4.468,-14.766 2.978,-4.406 7.025,-7.87 12.143,-10.395 5.115,-2.525 10.911,-3.789 17.389,-3.789 5.31,0 10.103,0.972 14.378,2.915 4.274,1.942 7.899,4.663 10.88,8.16 1.682,2.07 3.042,4.401 4.081,6.994 v -16.32 h 14.765 v 59.453 c 0,8.418 -1.296,15.315 -3.885,20.692"
       style="fill:#000000;fill-opacity:1;fill-rule:nonzero;stroke:none"
       transform="matrix(1.3333333,0,0,-1.3333333,1165.7539,656.20147)" />
  </g>
</svg>
